HIERARCHY
ROOT Hips
{
	OFFSET 0.000000 121.760803 0.000000
	CHANNELS 6 Xposition Yposition Zposition Xrotation Yrotation Zrotation 
	JOINT Spine
	{
		OFFSET 0.072000 7.257294 -0.789700
		CHANNELS 3 Xrotation Yrotation Zrotation
		JOINT Spine1
		{
			OFFSET 0.000000 12.508769 -0.658067
			CHANNELS 3 Xrotation Yrotation Zrotation
			JOINT Spine1_split
			{
				OFFSET 0.000000 12.508769 -0.658067
				CHANNELS 3 Xrotation Yrotation Zrotation
				JOINT Spine2
				{
					OFFSET 0.000000 12.508769 -0.658067
					CHANNELS 3 Xrotation Yrotation Zrotation
					JOINT Neck
					{
						OFFSET 0.000000 14.033295 7.520400
						CHANNELS 3 Xrotation Yrotation Zrotation
						JOINT Head
						{
							OFFSET 0.000000 8.198502 5.703100
							CHANNELS 3 Xrotation Yrotation Zrotation
							JOINT HeadTop_End
							{
								OFFSET 0.000000 17.760803 13.332701
								CHANNELS 3 Xrotation Yrotation Zrotation
								End Site
								{
									OFFSET 0.000000 0.000000 0.000000
								}
							}
						}
					}
					JOINT LeftShoulder
					{
						OFFSET 6.292450 5.785301 -0.669000
						CHANNELS 3 Xrotation Yrotation Zrotation
						JOINT LeftShoulder_split
						{
							OFFSET 6.292450 5.785301 -0.669000
							CHANNELS 3 Xrotation Yrotation Zrotation
							JOINT LeftArm
							{
								OFFSET 13.907140 -6.093903 1.965100
								CHANNELS 3 Xrotation Yrotation Zrotation
								JOINT LeftForeArm
								{
									OFFSET 34.140198 0.000000 0.000000
									CHANNELS 3 Xrotation Yrotation Zrotation
									JOINT LeftHand
									{
										OFFSET 40.960209 0.000000 0.000000
										CHANNELS 3 Xrotation Yrotation Zrotation
										JOINT LeftHandThumb1
										{
											OFFSET 10.006996 -7.170425 9.573125
											CHANNELS 3 Xrotation Yrotation Zrotation
											JOINT LeftHandThumb2
											{
												OFFSET 1.835007 -1.059448 1.059443
												CHANNELS 3 Xrotation Yrotation Zrotation
												JOINT LeftHandThumb3
												{
													OFFSET 2.112267 -1.219513 1.219518
													CHANNELS 3 Xrotation Yrotation Zrotation
													JOINT LeftHandThumb4
													{
														OFFSET 4.843811 -2.796570 2.796576
														CHANNELS 3 Xrotation Yrotation Zrotation
														End Site
														{
															OFFSET 0.000000 0.000000 0.000000
														}
													}
												}
											}
										}
										JOINT LeftHandIndex1
										{
											OFFSET 18.389847 -0.922348 4.596882
											CHANNELS 3 Xrotation Yrotation Zrotation
											JOINT LeftHandIndex2
											{
												OFFSET 4.711273 0.000000 0.000000
												CHANNELS 3 Xrotation Yrotation Zrotation
												JOINT LeftHandIndex3
												{
													OFFSET 2.886131 0.000000 0.000000
													CHANNELS 3 Xrotation Yrotation Zrotation
													JOINT LeftHandIndex4
													{
														OFFSET 6.145912 0.000000 0.000000
														CHANNELS 3 Xrotation Yrotation Zrotation
														End Site
														{
															OFFSET 0.000000 0.000000 0.000000
														}
													}
												}
											}
										}
										JOINT LeftHandMiddle1
										{
											OFFSET 18.013008 0.000000 0.000000
											CHANNELS 3 Xrotation Yrotation Zrotation
											JOINT LeftHandMiddle2
											{
												OFFSET 4.946693 0.000000 0.000000
												CHANNELS 3 Xrotation Yrotation Zrotation
												JOINT LeftHandMiddle3
												{
													OFFSET 3.342232 0.000000 0.000000
													CHANNELS 3 Xrotation Yrotation Zrotation
													JOINT LeftHandMiddle4
													{
														OFFSET 4.461754 0.000000 0.000000
														CHANNELS 3 Xrotation Yrotation Zrotation
														End Site
														{
															OFFSET 0.000000 0.000000 0.000000
														}
													}
												}
											}
										}
										JOINT LeftHandRing1
										{
											OFFSET 15.849892 -0.102921 -4.126150
											CHANNELS 3 Xrotation Yrotation Zrotation
											JOINT LeftHandRing2
											{
												OFFSET 3.527054 0.000000 0.000000
												CHANNELS 3 Xrotation Yrotation Zrotation
												JOINT LeftHandRing3
												{
													OFFSET 2.961098 0.000000 0.000000
													CHANNELS 3 Xrotation Yrotation Zrotation
													JOINT LeftHandRing4
													{
														OFFSET 4.927200 0.000000 0.000000
														CHANNELS 3 Xrotation Yrotation Zrotation
														End Site
														{
															OFFSET 0.000000 0.000000 0.000000
														}
													}
												}
											}
										}
										JOINT LeftHandPinky1
										{
											OFFSET 12.791824 -0.832031 -6.799156
											CHANNELS 3 Xrotation Yrotation Zrotation
											JOINT LeftHandPinky2
											{
												OFFSET 3.327133 0.000000 0.000000
												CHANNELS 3 Xrotation Yrotation Zrotation
												JOINT LeftHandPinky3
												{
													OFFSET 3.014900 0.000000 0.000000
													CHANNELS 3 Xrotation Yrotation Zrotation
													JOINT LeftHandPinky4
													{
														OFFSET 5.847786 0.000000 0.000000
														CHANNELS 3 Xrotation Yrotation Zrotation
														End Site
														{
															OFFSET 0.000000 0.000000 0.000000
														}
													}
												}
											}
										}
									}
								}
							}
						}
					}
					JOINT RightShoulder
					{
						OFFSET -6.292450 5.785301 -0.669000
						CHANNELS 3 Xrotation Yrotation Zrotation
						JOINT RightShoulder_split
						{
							OFFSET -6.292450 5.785301 -0.669000
							CHANNELS 3 Xrotation Yrotation Zrotation
							JOINT RightArm
							{
								OFFSET -13.907140 -6.093903 1.965100
								CHANNELS 3 Xrotation Yrotation Zrotation
								JOINT RightForeArm
								{
									OFFSET -34.140198 0.000000 0.000000
									CHANNELS 3 Xrotation Yrotation Zrotation
									JOINT RightHand
									{
										OFFSET -40.960209 0.000000 0.000000
										CHANNELS 3 Xrotation Yrotation Zrotation
										JOINT RightHandThumb1
										{
											OFFSET -10.007050 -7.170456 9.573117
											CHANNELS 3 Xrotation Yrotation Zrotation
											JOINT RightHandThumb2
											{
												OFFSET -1.835007 -1.059448 1.059443
												CHANNELS 3 Xrotation Yrotation Zrotation
												JOINT RightHandThumb3
												{
													OFFSET -2.112267 -1.219513 1.219518
													CHANNELS 3 Xrotation Yrotation Zrotation
													JOINT RightHandThumb4
													{
														OFFSET -4.843834 -2.796585 2.796590
														CHANNELS 3 Xrotation Yrotation Zrotation
														End Site
														{
															OFFSET 0.000000 0.000000 0.000000
														}
													}
												}
											}
										}
										JOINT RightHandIndex1
										{
											OFFSET -18.389870 -0.922424 4.596786
											CHANNELS 3 Xrotation Yrotation Zrotation
											JOINT RightHandIndex2
											{
												OFFSET -4.711273 0.000000 0.000000
												CHANNELS 3 Xrotation Yrotation Zrotation
												JOINT RightHandIndex3
												{
													OFFSET -2.886131 0.000000 0.000000
													CHANNELS 3 Xrotation Yrotation Zrotation
													JOINT RightHandIndex4
													{
														OFFSET -6.145920 0.000000 0.000000
														CHANNELS 3 Xrotation Yrotation Zrotation
														End Site
														{
															OFFSET 0.000000 0.000000 0.000000
														}
													}
												}
											}
										}
										JOINT RightHandMiddle1
										{
											OFFSET -18.013008 0.000000 0.000000
											CHANNELS 3 Xrotation Yrotation Zrotation
											JOINT RightHandMiddle2
											{
												OFFSET -4.946693 0.000000 0.000000
												CHANNELS 3 Xrotation Yrotation Zrotation
												JOINT RightHandMiddle3
												{
													OFFSET -3.342232 0.000000 0.000000
													CHANNELS 3 Xrotation Yrotation Zrotation
													JOINT RightHandMiddle4
													{
														OFFSET -4.461754 0.000000 0.000000
														CHANNELS 3 Xrotation Yrotation Zrotation
														End Site
														{
															OFFSET 0.000000 0.000000 0.000000
														}
													}
												}
											}
										}
										JOINT RightHandRing1
										{
											OFFSET -15.849876 -0.102936 -4.126237
											CHANNELS 3 Xrotation Yrotation Zrotation
											JOINT RightHandRing2
											{
												OFFSET -3.527054 0.000000 0.000000
												CHANNELS 3 Xrotation Yrotation Zrotation
												JOINT RightHandRing3
												{
													OFFSET -2.961098 0.000000 0.000000
													CHANNELS 3 Xrotation Yrotation Zrotation
													JOINT RightHandRing4
													{
														OFFSET -4.927200 0.000000 0.000000
														CHANNELS 3 Xrotation Yrotation Zrotation
														End Site
														{
															OFFSET 0.000000 0.000000 0.000000
														}
													}
												}
											}
										}
										JOINT RightHandPinky1
										{
											OFFSET -12.791786 -0.832077 -6.799222
											CHANNELS 3 Xrotation Yrotation Zrotation
											JOINT RightHandPinky2
											{
												OFFSET -3.327133 0.000000 0.000000
												CHANNELS 3 Xrotation Yrotation Zrotation
												JOINT RightHandPinky3
												{
													OFFSET -3.014900 0.000000 0.000000
													CHANNELS 3 Xrotation Yrotation Zrotation
													JOINT RightHandPinky4
													{
														OFFSET -5.847786 0.000000 0.000000
														CHANNELS 3 Xrotation Yrotation Zrotation
														End Site
														{
															OFFSET 0.000000 0.000000 0.000000
														}
													}
												}
											}
										}
									}
								}
							}
						}
					}
				}
			}
		}
	}
	JOINT LeftUpLeg
	{
		OFFSET 13.026900 -6.336304 -1.092800
		CHANNELS 3 Xrotation Yrotation Zrotation
		JOINT LeftLeg
		{
			OFFSET 0.524474 -46.096886 9.782700
			CHANNELS 3 Xrotation Yrotation Zrotation
			JOINT LeftFoot
			{
				OFFSET -0.524474 -53.427422 -12.948200
				CHANNELS 3 Xrotation Yrotation Zrotation
				JOINT LeftToeBase
				{
					OFFSET 0.192200 -14.009700 16.364100
					CHANNELS 3 Xrotation Yrotation Zrotation
					JOINT LeftToe_End
					{
						OFFSET -1.784700 -0.561700 9.474800
						CHANNELS 3 Xrotation Yrotation Zrotation
						End Site
						{
							OFFSET 0.000000 0.000000 0.000000
						}
					}
				}
			}
		}
	}
	JOINT RightUpLeg
	{
		OFFSET -12.883000 -6.336304 -1.092800
		CHANNELS 3 Xrotation Yrotation Zrotation
		JOINT RightLeg
		{
			OFFSET -0.524587 -46.096825 9.782800
			CHANNELS 3 Xrotation Yrotation Zrotation
			JOINT RightFoot
			{
				OFFSET 0.524587 -53.427383 -12.948300
				CHANNELS 3 Xrotation Yrotation Zrotation
				JOINT RightToeBase
				{
					OFFSET -0.192200 -14.009700 16.364100
					CHANNELS 3 Xrotation Yrotation Zrotation
					JOINT RightToe_End
					{
						OFFSET 1.784700 -0.561700 9.474800
						CHANNELS 3 Xrotation Yrotation Zrotation
						End Site
						{
							OFFSET 0.000000 0.000000 0.000000
						}
					}
				}
			}
		}
	}
}
MOTION
Frames: 4
Frame Time: 0.016667
2.592828 109.886833 0.507368 -174.072685 -97.726558 -172.186296 7.218554 -5.597421 -4.351913 3.180250 -8.412478 -0.457314 0.000000 0.000000 0.000000 3.240266 -8.382689 -0.141389 -11.954767 7.249574 7.049804 90.964097 78.695063 -96.836195 -0.000000 0.000000 -0.000000 4.998844 3.199390 13.148478 0.000000 0.000000 0.000000 -41.287165 14.474969 -0.764740 0.404867 -12.304720 -0.189204 -49.608173 -4.504532 -0.286690 40.109941 -15.297202 -0.360446 5.639945 28.097749 11.338736 1.088504 40.896325 22.734039 0.000003 0.000001 -0.000001 6.882284 2.840007 -61.140493 8.247961 7.640037 -89.897912 2.146175 8.173409 -41.827798 0.000000 0.000000 0.000002 -2.345526 4.688853 -62.655251 8.754177 9.897064 -87.051260 1.995356 4.929256 -37.483409 0.000002 -0.000002 -0.000001 -9.042491 10.045603 -60.766185 8.524044 9.508872 -66.892906 6.576536 9.896792 -70.385093 0.000000 -0.000000 -0.000002 -17.946785 14.755012 -51.485925 8.868355 8.666996 -84.812003 4.540445 8.852606 -59.152976 0.000000 -0.000000 0.000001 -0.697211 3.176104 -19.419908 0.000000 0.000000 0.000000 -43.720396 41.405959 39.746213 -0.236292 135.165154 1.057708 -74.611860 -0.241698 -6.555985 0.277486 -1.521506 -1.570508 7.169009 -41.689648 -15.773524 -4.517987 11.064477 4.673972 -0.000001 0.000000 -0.000001 6.412834 -12.738379 14.389580 9.941764 -7.465154 101.743229 4.405018 -9.947427 61.138881 -0.000002 0.000000 0.000000 2.653196 -11.302326 44.730929 9.916100 -9.880666 94.351188 8.462611 -8.530826 83.992230 0.000001 0.000002 -0.000001 2.140164 -7.454458 61.765032 9.609243 -8.992502 89.388694 11.175489 -10.370853 97.638148 0.000001 -0.000000 -0.000002 -4.886663 -23.798131 68.396169 13.518274 -7.949276 112.864921 8.544488 -10.117960 85.305654 0.000001 0.000000 0.000001 -25.054360 30.123443 27.700292 22.896187 -8.153023 0.863506 -1.382548 3.637089 -16.197686 -1.333111 -0.000686 -0.000047 -0.000000 0.000001 0.000000 -23.839927 -9.477213 -24.677993 18.270027 3.198325 -4.047038 0.802207 8.815895 21.731251 0.053355 -0.000377 -0.000012 -0.000000 0.000000 0.000000 
2.538810 109.885086 0.501302 -174.173444 -97.804375 -172.262398 7.203228 -5.632672 -4.392364 3.193037 -8.441195 -0.434102 0.000000 0.000000 0.000000 3.256757 -8.414366 -0.119546 -11.939450 7.256022 7.066641 91.444943 78.685439 -97.309637 0.000001 0.000000 0.000000 4.942458 3.372599 13.150525 0.000000 0.000000 0.000000 -41.216797 14.374463 -0.890735 0.408205 -12.293920 -0.188310 -49.593519 -4.514066 -0.289863 40.109944 -15.297202 -0.360447 5.639939 28.097744 11.338733 1.088505 40.896325 22.734040 0.000001 0.000001 -0.000000 6.882283 2.840008 -61.140486 8.247959 7.640039 -89.897912 2.146175 8.173408 -41.827802 0.000000 0.000000 -0.000000 -2.345524 4.688853 -62.655251 8.754177 9.897066 -87.051260 1.995356 4.929259 -37.483409 0.000000 0.000001 -0.000002 -9.042490 10.045603 -60.766185 8.524043 9.508871 -66.892906 6.576536 9.896794 -70.385093 0.000004 0.000000 -0.000000 -17.946786 14.755010 -51.485928 8.868354 8.666997 -84.812003 4.540444 8.852606 -59.152969 -0.000000 -0.000000 -0.000000 -0.667738 3.236931 -19.377592 0.000000 0.000000 0.000000 -43.532494 41.170523 39.610979 -0.208215 135.324571 1.024186 -74.601266 -0.328436 -6.443863 0.277487 -1.521505 -1.570510 7.169009 -41.689644 -15.773521 -4.517983 11.064480 4.673974 0.000001 -0.000002 0.000001 6.412833 -12.738378 14.389578 9.941766 -7.465154 101.743229 4.405021 -9.947431 61.138881 -0.000002 0.000000 -0.000000 2.653194 -11.302327 44.730929 9.916097 -9.880668 94.351181 8.462611 -8.530827 83.992230 0.000003 0.000001 0.000002 2.140163 -7.454459 61.765032 9.609245 -8.992508 89.388687 11.175489 -10.370850 97.638155 0.000002 0.000002 -0.000000 -4.886662 -23.798128 68.396162 13.518275 -7.949278 112.864921 8.544488 -10.117960 85.305654 0.000000 0.000000 0.000001 -25.005053 30.096969 27.651944 22.869645 -8.187053 0.859535 -1.384485 3.639359 -16.204267 -1.325663 -0.000725 -0.000024 -0.000000 0.000004 0.000000 -23.774425 -9.429652 -24.709572 18.317505 3.097467 -4.057610 0.731339 8.786147 21.769276 0.051896 -0.000405 -0.000027 0.000000 0.000000 0.000000 
2.485018 109.882843 0.495232 -174.270569 -97.881604 -172.334989 7.188830 -5.666220 -4.436003 3.205282 -8.468310 -0.412652 0.000000 0.000000 0.000000 3.272583 -8.444015 -0.099794 -11.924542 7.262634 7.083635 92.002566 78.676054 -97.862677 -0.000001 -0.000000 -0.000000 4.890254 3.523461 13.153898 0.000000 0.000000 0.000000 -41.149834 14.283756 -0.998572 0.411570 -12.282978 -0.187456 -49.578762 -4.523406 -0.293042 40.109941 -15.297199 -0.360447 5.639942 28.097744 11.338732 1.088501 40.896325 22.734042 0.000000 0.000002 0.000000 6.882284 2.840009 -61.140493 8.247962 7.640040 -89.897918 2.146172 8.173406 -41.827798 0.000001 -0.000001 0.000002 -2.345526 4.688852 -62.655251 8.754178 9.897068 -87.051266 1.995357 4.929256 -37.483409 0.000000 -0.000000 -0.000002 -9.042490 10.045603 -60.766185 8.524042 9.508872 -66.892906 6.576536 9.896792 -70.385093 -0.000001 0.000002 -0.000003 -17.946783 14.755010 -51.485925 8.868355 8.666997 -84.812003 4.540442 8.852607 -59.152976 -0.000002 0.000001 -0.000001 -0.637567 3.300942 -19.333487 0.000000 0.000000 0.000000 -43.321523 40.922563 39.468935 -0.182343 135.493973 0.993889 -74.580092 -0.410723 -6.329814 0.277491 -1.521505 -1.570509 7.169009 -41.689644 -15.773519 -4.517985 11.064480 4.673978 -0.000000 0.000001 -0.000001 6.412836 -12.738379 14.389578 9.941763 -7.465155 101.743229 4.405018 -9.947433 61.138881 -0.000003 0.000000 0.000001 2.653195 -11.302329 44.730929 9.916099 -9.880674 94.351181 8.462616 -8.530820 83.992223 -0.000001 -0.000001 0.000002 2.140165 -7.454459 61.765032 9.609245 -8.992509 89.388694 11.175490 -10.370851 97.638148 -0.000001 -0.000001 -0.000000 -4.886661 -23.798129 68.396169 13.518275 -7.949278 112.864921 8.544487 -10.117960 85.305654 -0.000000 0.000001 0.000000 -24.957737 30.071533 27.604891 22.844785 -8.222366 0.855628 -1.387112 3.641937 -16.210414 -1.331763 -0.000713 -0.000040 0.000000 -0.000002 0.000000 -23.710105 -9.381729 -24.741341 18.366131 2.994145 -4.068189 0.660141 8.759426 21.807599 0.052027 -0.000418 -0.000010 0.000000 0.000000 -0.000000 
2.431534 109.880280 0.489196 -174.364156 -97.958197 -172.404165 7.175284 -5.700601 -4.479410 3.217082 -8.497976 -0.386804 0.000000 0.000000 0.000000 3.288897 -8.475687 -0.075522 -11.909486 7.269116 7.100595 92.471793 78.666943 -98.326283 -0.000000 -0.000000 -0.000000 4.841603 3.655647 13.158286 0.000000 0.000000 0.000000 -41.084080 14.218018 -1.098228 0.414889 -12.271956 -0.186585 -49.563749 -4.532722 -0.296220 40.109941 -15.297197 -0.360448 5.639939 28.097749 11.338731 1.088506 40.896325 22.734039 -0.000001 -0.000000 0.000001 6.882285 2.840009 -61.140493 8.247958 7.640038 -89.897918 2.146179 8.173413 -41.827802 0.000000 -0.000002 0.000003 -2.345523 4.688853 -62.655251 8.754176 9.897065 -87.051260 1.995358 4.929255 -37.483405 -0.000001 -0.000000 0.000000 -9.042485 10.045604 -60.766185 8.524042 9.508871 -66.892906 6.576535 9.896796 -70.385099 0.000000 0.000001 -0.000001 -17.946783 14.755010 -51.485925 8.868354 8.666997 -84.812003 4.540442 8.852606 -59.152976 -0.000002 0.000000 0.000000 -0.606759 3.367931 -19.287853 0.000000 0.000000 0.000000 -43.123325 40.675009 39.332997 -0.149017 135.647939 0.959557 -74.559807 -0.500131 -6.199159 0.277490 -1.521505 -1.570511 7.169011 -41.689644 -15.773521 -4.517985 11.064479 4.673971 -0.000003 -0.000001 -0.000005 6.412839 -12.738380 14.389578 9.941761 -7.465153 101.743229 4.405020 -9.947430 61.138881 -0.000001 -0.000001 0.000001 2.653201 -11.302329 44.730929 9.916099 -9.880670 94.351181 8.462615 -8.530820 83.992230 0.000001 -0.000003 0.000000 2.140167 -7.454458 61.765032 9.609248 -8.992508 89.388687 11.175490 -10.370850 97.638148 -0.000001 0.000000 0.000002 -4.886658 -23.798131 68.396169 13.518278 -7.949276 112.864921 8.544492 -10.117960 85.305654 -0.000000 0.000001 0.000002 -24.912067 30.047488 27.557710 22.821197 -8.274175 0.850499 -1.390234 3.660226 -16.213269 -1.321093 -0.000671 -0.000045 -0.000000 -0.000001 0.000000 -23.646383 -9.334116 -24.772997 18.414516 2.890842 -4.078563 0.589423 8.733584 21.845832 0.049756 -0.000378 -0.000009 0.000000 0.000000 -0.000000 
